HIERARCHY
ROOT Hips
{
	OFFSET 0.000000 0.000000 0.000000
	CHANNELS 6 Xposition Yposition Zposition Xrotation Yrotation Zrotation
	JOINT LeftUpLeg_virtual
	{
		OFFSET 0.000000 0.000000 0.000000
		CHANNELS 3 Xrotation Yrotation Zrotation
		JOINT LeftUpLeg
		{
			OFFSET 10.205400 -3.823500 0.155100
			CHANNELS 3 Xrotation Yrotation Zrotation
			JOINT LeftLeg
			{
				OFFSET 0.708757 -12.982077 0.567790
				CHANNELS 3 Xrotation Yrotation Zrotation
				JOINT LeftFoot
				{
					OFFSET -0.708756 -10.717838 -2.184338
					CHANNELS 3 Xrotation Yrotation Zrotation
					JOINT LeftToeBase
					{
						OFFSET 0.108149 -7.191104 7.560241
						CHANNELS 3 Xrotation Yrotation Zrotation
						JOINT LeftToe_End
						{
							OFFSET 0.070230 0.081724 4.490308
							CHANNELS 3 Xrotation Yrotation Zrotation
							End Site
							{
								OFFSET 0 0 0
							}
						}
					}
				}
			}
		}
	}
	JOINT RightUpLeg_virtual
	{
		OFFSET 0.000000 0.000000 0.000000
		CHANNELS 3 Xrotation Yrotation Zrotation
		JOINT RightUpLeg
		{
			OFFSET -10.205400 -3.823500 0.005500
			CHANNELS 3 Xrotation Yrotation Zrotation
			JOINT RightLeg
			{
				OFFSET -0.708756 -12.982134 0.610632
				CHANNELS 3 Xrotation Yrotation Zrotation
				JOINT RightFoot
				{
					OFFSET 0.708754 -10.717769 -1.945823
					CHANNELS 3 Xrotation Yrotation Zrotation
					JOINT RightToeBase
					{
						OFFSET -0.108140 -7.191069 7.372968
						CHANNELS 3 Xrotation Yrotation Zrotation
						JOINT RightToe_End
						{
							OFFSET -0.070227 0.081735 4.479403
							CHANNELS 3 Xrotation Yrotation Zrotation
							End Site
							{
								OFFSET 0 0 0
							}
						}
					}
				}
			}
		}
	}
	JOINT Spine_virtual
	{
		OFFSET 0.000000 0.000000 0.000000
		CHANNELS 3 Xrotation Yrotation Zrotation
		JOINT Spine
		{
			OFFSET 0.000000 6.876099 0.125700
			CHANNELS 3 Xrotation Yrotation Zrotation
			JOINT Spine1
			{
				OFFSET 0.000000 5.730043 0.104720
				CHANNELS 3 Xrotation Yrotation Zrotation
				JOINT Spine1_split
				{
					OFFSET 0.000000 5.730043 0.104720
					CHANNELS 3 Xrotation Yrotation Zrotation
					JOINT Spine2
					{
						OFFSET 0.000000 5.730043 0.104720
						CHANNELS 3 Xrotation Yrotation Zrotation
						JOINT Neck_virtual
						{
							OFFSET 0.000000 0.000000 0.000000
							CHANNELS 3 Xrotation Yrotation Zrotation
							JOINT Neck
							{
								OFFSET 0.000000 10.314075 0.188496
								CHANNELS 3 Xrotation Yrotation Zrotation
								JOINT Head
								{
									OFFSET 0.000000 7.643700 -2.377400
									CHANNELS 3 Xrotation Yrotation Zrotation
									JOINT HeadTop_End
									{
										OFFSET 0.000000 43.788605 -13.619600
										CHANNELS 3 Xrotation Yrotation Zrotation
										End Site
										{
											OFFSET 0 0 0
										}
									}
								}
							}
						}
						JOINT LeftShoulder_virtual
						{
							OFFSET 0.000000 0.000000 0.000000
							CHANNELS 3 Xrotation Yrotation Zrotation
							JOINT LeftShoulder
							{
								OFFSET 2.196100 4.412489 0.087492
								CHANNELS 3 Xrotation Yrotation Zrotation
								JOINT LeftShoulder_split
								{
									OFFSET 2.196100 4.412489 0.087492
									CHANNELS 3 Xrotation Yrotation Zrotation
									JOINT LeftArm
									{
										OFFSET 8.771219 -2.981674 -0.026999
										CHANNELS 3 Xrotation Yrotation Zrotation
										JOINT LeftForeArm
										{
											OFFSET 8.512804 0.000000 -0.000000
											CHANNELS 3 Xrotation Yrotation Zrotation
											JOINT LeftHand
											{
												OFFSET 18.484802 0.000000 -0.000000
												CHANNELS 3 Xrotation Yrotation Zrotation
												End Site
												{
													OFFSET 0 0 0
												}
											}
										}
									}
								}
							}
						}
						JOINT RightShoulder_virtual
						{
							OFFSET 0.000000 0.000000 0.000000
							CHANNELS 3 Xrotation Yrotation Zrotation
							JOINT RightShoulder
							{
								OFFSET -2.196100 4.412496 0.070690
								CHANNELS 3 Xrotation Yrotation Zrotation
								JOINT RightShoulder_split
								{
									OFFSET -2.196100 4.412496 0.070690
									CHANNELS 3 Xrotation Yrotation Zrotation
									JOINT RightArm
									{
										OFFSET -8.771282 -2.981682 -0.094208
										CHANNELS 3 Xrotation Yrotation Zrotation
										JOINT RightForeArm
										{
											OFFSET -8.494598 0.000000 0.000000
											CHANNELS 3 Xrotation Yrotation Zrotation
											JOINT RightHand
											{
												OFFSET -18.483803 0.000000 0.000001
												CHANNELS 3 Xrotation Yrotation Zrotation
												End Site
												{
													OFFSET 0 0 0
												}
											}
										}
									}
								}
							}
						}
					}
				}
			}
		}
	}
}
MOTION
Frames: 10
Frame Time: 0.03333333
4.635495 29.784346 31.525387 0.000000 0.000000 0.000000 163.754031 52.132918 -174.862747 -47.772672 3.644620 20.180598 33.731388 -34.258494 1.286913 -4.905995 5.243800 -16.340961 4.947121 2.063325 -10.661895 0.000000 0.000000 0.000000 166.573929 46.413174 -179.390247 -16.736069 -30.530215 -26.730036 34.478672 -4.635342 6.891136 -23.711908 -7.309853 18.074487 5.473167 -1.793995 -1.091239 0.000000 0.000000 0.000000 165.880843 51.994016 -177.370696 16.940344 4.048618 -2.808075 10.806654 13.712218 -12.081238 0.546019 -5.734917 1.416955 0.000000 0.000000 0.000000 3.783436 13.114696 -10.311570 5.712771 4.202066 6.096099 -3.540246 9.505972 -7.483212 0.000000 0.000000 0.000000 2.819865 13.683008 -11.170115 0.922085 19.630042 -5.236654 -6.320064 -1.870007 -0.201261 21.116134 33.953424 -67.071365 -56.766269 -27.421254 -29.176406 0.000000 0.000000 0.000000 2.542301 12.998296 -11.013946 5.687048 14.052864 2.075593 -7.986686 -2.779081 0.571066 -55.888662 31.862692 69.379497 34.882589 30.222269 0.173246 0.000000 0.000000 0.000000 
4.459776 29.849499 30.521952 0.000000 0.000000 0.000000 162.499599 57.151686 -174.242524 -45.795821 2.043804 22.924437 36.354174 -33.139743 1.186906 -8.102992 5.950852 -15.326480 4.798618 1.953897 -11.358458 0.000000 0.000000 0.000000 165.511166 50.907336 -178.648215 -19.426349 -28.937090 -25.713927 33.829790 -2.700610 5.772257 -18.788648 -5.014663 17.983094 2.845795 -0.735684 -1.339308 0.000000 0.000000 0.000000 164.829745 56.719619 -176.989381 16.701496 4.419803 -1.771085 10.424644 13.097883 -12.235691 0.258872 -5.876754 1.508410 0.000000 0.000000 0.000000 3.606453 12.458488 -10.414063 4.494006 4.579271 5.246087 -2.493966 8.933548 -7.155286 0.000000 0.000000 0.000000 2.477156 13.044312 -11.262448 1.366087 18.090475 -8.163914 -6.392553 -1.444598 0.752097 15.707973 31.268743 -60.061187 -51.439907 -28.936168 -28.636067 0.000000 0.000000 0.000000 2.189239 12.310601 -11.083548 5.534656 13.321744 2.402314 -9.657839 -2.213417 0.764514 -48.356134 28.771277 66.645373 34.859797 37.713798 -0.505171 0.000000 0.000000 0.000000 
4.201045 29.782578 29.388367 0.000000 0.000000 0.000000 161.140705 62.246731 -173.410211 -43.729767 0.205928 25.155180 40.036158 -31.773640 1.610270 -11.812565 6.459722 -14.321442 4.345582 1.992822 -11.504419 0.000000 0.000000 0.000000 164.269984 55.565221 -177.484159 -21.927185 -26.393722 -24.904873 33.640072 -0.305494 4.447243 -14.351228 -2.746449 19.865595 -0.590079 -0.199494 -0.764003 0.000000 0.000000 0.000000 163.995260 61.793159 -176.822751 16.449679 4.583486 -1.075660 9.867829 12.268288 -12.363894 0.117186 -5.655837 1.490098 0.000000 0.000000 0.000000 3.256736 11.701093 -10.520315 3.205223 4.829535 5.230310 -1.867864 8.277536 -6.315649 0.000000 0.000000 0.000000 1.884537 12.302091 -11.293121 1.536864 15.689981 -10.699557 -6.575139 -1.112504 1.457331 9.716526 27.897510 -51.405786 -45.263684 -30.640300 -27.651174 0.000000 0.000000 0.000000 1.499417 11.478798 -11.071907 5.262306 11.928931 2.658399 -11.358852 -1.479627 0.243250 -40.624565 24.481456 62.438823 34.591947 48.319804 -0.964826 0.000000 0.000000 0.000000 
3.868297 29.615074 28.069204 0.000000 0.000000 0.000000 159.102181 67.050724 -171.566128 -41.812635 -1.614809 26.591207 43.789176 -29.852288 2.179590 -15.823019 6.759441 -13.133808 3.664569 2.161534 -11.068798 0.000000 0.000000 0.000000 162.573378 60.296152 -175.582362 -23.698134 -22.974571 -24.010381 33.958048 2.117550 2.863248 -12.148090 -1.113643 22.473928 -3.468934 -0.280443 0.700980 0.000000 0.000000 0.000000 162.912811 66.935096 -176.221203 16.201403 4.404642 -0.701362 9.090659 11.184909 -12.425015 0.178111 -4.891621 1.643056 0.000000 0.000000 0.000000 2.733270 10.783671 -10.611372 2.028940 4.871557 5.780427 -2.189791 7.348515 -4.895260 0.000000 0.000000 0.000000 0.985905 11.406984 -11.236822 1.377586 12.731662 -12.221405 -6.601859 -0.742366 1.917169 3.211585 23.514659 -42.031318 -38.075743 -32.506981 -25.754526 0.000000 0.000000 0.000000 0.492519 10.482017 -10.982632 4.910480 10.008752 2.771167 -12.503994 -0.168825 -0.770440 -33.964618 18.939800 57.504169 33.591591 61.245678 -0.734157 0.000000 0.000000 0.000000 
3.547444 29.472965 26.597277 0.000000 0.000000 0.000000 155.134155 71.544415 -167.414220 -40.217421 -3.238105 27.256428 46.752433 -27.383039 2.504805 -19.565002 6.673712 -11.911519 2.708892 2.423731 -10.241501 0.000000 0.000000 0.000000 159.756376 65.355703 -172.332749 -24.518335 -18.939263 -22.978384 34.705386 3.718886 1.202525 -13.588807 -0.929878 23.551645 -3.242017 -0.847770 3.127009 0.000000 0.000000 0.000000 160.556178 71.921571 -173.993236 15.933221 3.845278 -0.509398 8.121630 9.864501 -12.359908 0.285798 -4.284409 1.673693 0.000000 0.000000 0.000000 1.999716 9.646309 -10.641767 1.162501 4.778369 6.516492 -3.580667 6.004070 -3.002470 0.000000 0.000000 0.000000 -0.103493 10.278908 -11.065196 0.973568 9.558063 -12.516586 -6.752217 -0.523309 1.877837 -2.936686 17.768927 -33.141652 -29.238909 -33.956115 -22.098536 0.000000 0.000000 0.000000 -0.719298 9.253233 -10.832178 4.469769 7.721109 2.730288 -12.809636 1.241759 -2.134144 -28.986981 12.860560 52.622731 30.222074 75.006187 1.712383 0.000000 0.000000 0.000000 
3.235560 29.462833 24.976046 0.000000 0.000000 0.000000 147.338327 75.653347 -159.191287 -38.996374 -4.583456 27.187623 48.608435 -24.313954 2.425001 -22.510709 6.269912 -10.699716 1.708650 2.717835 -9.340581 0.000000 0.000000 0.000000 154.900767 70.477553 -167.029216 -25.031030 -14.797178 -22.062373 35.131174 3.841715 -0.280361 -18.033303 -2.338494 21.995825 0.649083 -1.483881 6.224596 0.000000 0.000000 0.000000 154.690179 76.753855 -167.971741 15.560108 2.955214 -0.370764 7.001925 8.313755 -12.103158 0.470176 -3.396076 1.349179 0.000000 0.000000 0.000000 1.080894 8.287625 -10.569587 0.816094 4.683704 7.019131 -5.813492 4.264799 -0.916945 0.000000 0.000000 0.000000 -1.247037 8.885359 -10.773187 0.480830 6.304114 -11.708934 -6.606033 -0.522140 1.368199 -7.920341 10.492832 -25.994541 -18.937485 -33.929774 -16.594481 0.000000 0.000000 0.000000 -1.902222 7.783252 -10.602086 4.053164 5.353477 2.562821 -12.456020 1.602545 -3.478077 -25.440669 7.322563 48.245816 -7.816061 87.616738 38.725427 0.000000 0.000000 0.000000 
2.957401 29.596214 23.131670 0.000000 0.000000 0.000000 132.088414 79.212832 -143.387363 -38.278597 -5.491933 26.490643 49.705322 -20.539497 1.968895 -24.748560 5.735406 -8.956861 1.276452 2.927574 -8.835959 0.000000 0.000000 0.000000 145.728329 75.568066 -157.483972 -25.355423 -10.916716 -21.256073 34.860008 2.733346 -1.319125 -23.159882 -4.381900 18.797707 5.139693 -2.024136 9.249912 0.000000 0.000000 0.000000 140.317385 81.091134 -153.240594 15.195291 1.894394 -0.185912 5.893761 6.666643 -11.638266 0.622729 -2.474452 0.871101 0.000000 0.000000 0.000000 0.097312 6.792208 -10.308400 1.110715 4.736461 6.988981 -8.398174 2.433388 0.992070 0.000000 0.000000 0.000000 -2.240531 7.263055 -10.335918 0.039224 3.355934 -10.283516 -5.940414 -0.644029 0.750661 -11.791736 1.849730 -21.357704 -8.393797 -32.189913 -10.270323 0.000000 0.000000 0.000000 -2.906380 6.195929 -10.220605 3.694974 3.325137 2.418915 -11.240880 0.696677 -4.410204 -22.922316 3.071198 44.741195 -135.055216 80.597462 164.809473 0.000000 0.000000 0.000000 
2.754932 29.892849 21.118317 0.000000 0.000000 0.000000 102.637157 81.510876 -113.373504 -37.773149 -5.472019 25.398586 50.295765 -16.053303 1.163946 -26.556781 5.229852 -6.814659 1.592535 3.049159 -8.813715 0.000000 0.000000 0.000000 126.404084 80.016486 -137.816183 -25.389415 -7.881152 -20.649139 33.875740 0.958747 -1.894836 -26.276667 -6.214702 16.109107 7.015731 -2.764541 11.594563 0.000000 0.000000 0.000000 103.478090 84.005371 -115.978320 14.836761 0.869459 0.070555 4.955578 5.068034 -10.957761 0.968437 -1.866656 0.357597 0.000000 0.000000 0.000000 -0.861764 5.309318 -9.808940 2.034306 4.973903 6.408699 -10.735815 0.871221 2.496522 0.000000 0.000000 0.000000 -2.968766 5.573102 -9.730090 -0.326917 0.926814 -8.554960 -5.175808 -0.514240 -0.103282 -15.028505 -7.300317 -19.388283 0.635205 -29.540199 -4.508967 0.000000 0.000000 0.000000 -3.636745 4.631172 -9.650114 3.446507 2.030334 2.383874 -9.945113 -1.200224 -4.769679 -21.173662 0.539394 42.109530 -140.761333 72.711510 169.237457 0.000000 0.000000 0.000000 
2.625865 30.278688 18.996677 0.000000 0.000000 0.000000 63.072774 80.639911 -73.260192 -37.060637 -4.234906 24.136032 50.448368 -10.752950 -0.082367 -28.236518 4.936996 -4.563104 2.082253 3.118558 -9.034000 0.000000 0.000000 0.000000 86.505063 82.177653 -97.585201 -24.618257 -6.335634 -20.092854 31.808143 -1.050034 -2.093419 -25.922284 -7.586635 15.511754 5.575555 -3.926286 13.004791 0.000000 0.000000 0.000000 52.139195 82.602033 -64.264328 14.527483 0.083778 0.328261 4.306068 3.693551 -10.102675 1.264825 -1.238739 -0.046664 0.000000 0.000000 0.000000 -1.656495 4.002121 -9.072853 3.435715 5.333100 5.431260 -12.403882 -0.080824 3.449279 0.000000 0.000000 0.000000 -3.389907 4.045705 -8.958161 -0.601396 -0.857645 -6.877166 -4.408923 -0.180095 -0.580937 -18.286491 -15.428146 -19.845053 6.964262 -27.143308 -0.166735 0.000000 0.000000 0.000000 -4.074077 3.305460 -8.877705 3.328772 1.658132 2.453601 -8.981340 -3.205187 -4.428339 -20.264196 -0.012492 40.327551 -143.154427 68.127879 170.225089 0.000000 0.000000 0.000000 
2.627272 30.676167 16.823727 0.000000 0.000000 0.000000 35.605438 76.240422 -45.276938 -35.856786 -1.769747 22.836142 50.292326 -4.836033 -1.627320 -29.285816 5.078796 -2.781732 1.957222 3.202010 -9.179321 0.000000 0.000000 0.000000 44.176615 79.450796 -54.818852 -22.413054 -6.294674 -19.444367 28.683718 -2.998120 -2.144575 -23.325395 -7.950198 16.470246 2.122081 -5.259624 13.636721 0.000000 0.000000 0.000000 25.762621 77.429272 -37.538873 14.286318 -0.332949 0.536603 4.002946 2.714022 -9.135072 1.275039 -0.993657 0.015368 0.000000 0.000000 0.000000 -2.269170 3.051675 -8.150043 5.078565 5.695445 4.349942 -13.195667 -0.258264 3.915587 0.000000 0.000000 0.000000 -3.502498 2.886387 -8.056569 -0.816106 -2.022202 -5.376843 -3.837639 0.470200 -0.619134 -21.699361 -21.135407 -22.372035 10.311200 -26.485355 2.616646 0.000000 0.000000 0.000000 -4.272075 2.389581 -7.958820 3.276313 2.169527 2.615750 -8.136574 -4.240792 -3.959916 -20.423109 1.305872 39.365853 -144.624516 66.937329 170.119044 0.000000 0.000000 0.000000 
